<svg width="240" height="234" viewBox="0 0 240 234" fill="none" xmlns="http://www.w3.org/2000/svg">
<path fill-rule="evenodd" clip-rule="evenodd" d="M32.591 0.961578C17.816 4.44458 4.02697 18.5626 0.82897 33.4816C0.13097 36.7356 -0.12703 65.7046 0.0579703 119.878C0.33397 200.571 0.35797 201.43 2.47897 206.597C7.03597 217.699 15.576 226.262 26.879 231.061L32.337 233.378H119.337C200.52 233.378 206.682 233.258 211.493 231.579C222.491 227.741 232.097 218.431 237.02 206.836L239.337 201.378V116.878V32.3776L236.98 26.5326C232.35 15.0546 219.011 3.77058 206.722 0.937578C201.234 -0.327422 37.965 -0.305422 32.591 0.961578ZM204.596 106.085L204.854 160.792L198.596 162.724C166.187 172.725 139.677 164.006 132.172 140.878C129.592 132.927 129.797 119.175 132.61 111.518C136.851 99.9756 146.505 90.5306 158.337 86.3496C161.087 85.3776 167.499 84.3696 172.587 84.1106L181.837 83.6386V67.9246C181.837 59.2826 182.151 51.8966 182.535 51.5126C182.92 51.1286 187.982 50.9406 193.785 51.0956L204.337 51.3776L204.596 106.085ZM64.212 65.8776C65.794 68.9026 70.464 77.5716 74.59 85.1416L82.092 98.9046L92.359 79.6416L102.626 60.3776L114.231 60.0956C121.503 59.9196 125.837 60.1886 125.837 60.8156C125.837 61.3666 119.312 72.5686 111.337 85.7076C103.362 98.8476 96.837 110.171 96.837 110.871C96.837 111.571 103.812 123.578 112.337 137.553C120.862 151.528 127.837 163.393 127.837 163.92C127.837 164.481 122.464 164.878 114.86 164.878C102.474 164.878 101.821 164.776 100.516 162.628C99.764 161.39 95.201 152.953 90.376 143.878C85.551 134.803 81.298 127.043 80.925 126.633C80.552 126.223 75.572 134.66 69.86 145.383L59.474 164.878H47.155C40.38 164.878 34.837 164.631 34.837 164.328C34.837 164.026 41.875 152.253 50.476 138.166C62.597 118.315 65.894 112.196 65.133 110.966C60.769 103.91 36.678 62.6256 36.204 61.3906C35.67 59.9996 37.098 59.8486 48.468 60.0966L61.337 60.3776L64.212 65.8776ZM170.337 102.813C159.777 105.384 152.859 114.136 152.843 124.946C152.829 133.62 157.639 142.28 164.337 145.642C167.534 147.246 174.293 148.071 178.218 147.334L181.837 146.655V124.883C181.837 103.15 181.833 103.11 179.587 102.508C176.835 101.771 174.272 101.855 170.337 102.813Z" fill="black"/>
</svg>
