<svg width="458" height="243" viewBox="0 0 458 243" fill="none" xmlns="http://www.w3.org/2000/svg">
<g filter="url(#filter0_dddddd_279_520)">
<path d="M137.063 136.354C132.661 136.354 128.845 135.52 125.613 133.852C122.381 132.184 119.874 129.848 118.091 126.845C116.363 123.786 115.5 120.227 115.5 116.167C115.5 111.607 116.391 107.631 118.174 104.239C120.013 100.847 122.576 98.2606 125.863 96.481C129.207 94.6458 133.079 93.7283 137.481 93.7283C141.883 93.7283 145.7 94.5624 148.932 96.2308C152.163 97.8991 154.643 100.263 156.37 103.321C158.153 106.324 159.045 109.856 159.045 113.915C159.045 118.531 158.125 122.535 156.287 125.927C154.504 129.264 151.94 131.85 148.597 133.685C145.31 135.465 141.465 136.354 137.063 136.354ZM136.896 126.845C140.128 126.845 142.524 125.621 144.084 123.174C145.7 120.728 146.508 117.53 146.508 113.582C146.508 106.686 143.555 103.238 137.648 103.238C134.417 103.238 131.993 104.461 130.377 106.908C128.817 109.355 128.037 112.525 128.037 116.418C128.037 123.369 130.99 126.845 136.896 126.845Z" fill="white"/>
<path d="M192.802 93.7283C196.257 93.7283 199.293 94.5346 201.912 96.1474C204.587 97.7045 206.648 99.9845 208.097 102.988C209.546 105.935 210.27 109.411 210.27 113.415C210.27 117.864 209.435 121.84 207.763 125.343C206.147 128.791 203.835 131.488 200.826 133.435C197.873 135.381 194.474 136.354 190.629 136.354C184.946 136.354 180.711 134.213 177.925 129.931L177.507 135.687H165.053L169.65 76.878H182.271L180.432 99.484C181.769 97.7045 183.525 96.3142 185.698 95.3132C187.871 94.2566 190.239 93.7283 192.802 93.7283ZM188.122 126.845C191.13 126.845 193.471 125.733 195.142 123.508C196.87 121.228 197.733 118.142 197.733 114.249C197.733 110.69 196.925 107.965 195.309 106.074C193.749 104.183 191.493 103.238 188.539 103.238C185.642 103.238 183.33 104.378 181.602 106.658C179.931 108.882 179.095 111.913 179.095 115.75C179.095 119.365 179.875 122.118 181.435 124.009C182.995 125.899 185.224 126.845 188.122 126.845Z" fill="white"/>
<path d="M220.992 76.878H233.613L228.932 135.687H216.312L220.992 76.878Z" fill="white"/>
<path d="M258.988 93.7283C264.56 93.7283 268.989 95.4244 272.277 98.8167C275.564 102.153 277.208 106.992 277.208 113.331C277.208 114.666 277.125 116.084 276.957 117.586H250.295C250.797 123.814 254.224 126.928 260.576 126.928C264.755 126.928 268.739 125.594 272.528 122.924L275.202 131.349C273.419 132.906 271.135 134.13 268.349 135.02C265.563 135.909 262.665 136.354 259.656 136.354C255.366 136.354 251.605 135.52 248.373 133.852C245.141 132.184 242.634 129.848 240.851 126.845C239.068 123.786 238.176 120.255 238.176 116.251C238.176 111.858 239.068 107.965 240.851 104.572C242.69 101.125 245.169 98.4552 248.289 96.5644C251.466 94.6737 255.032 93.7283 258.988 93.7283ZM259.406 102.404C254.447 102.404 251.493 105.379 250.546 111.329H266.761C266.761 108.326 266.092 106.102 264.755 104.656C263.473 103.154 261.69 102.404 259.406 102.404Z" fill="white"/>
<path d="M299.708 136.354C292.743 136.354 286.419 134.686 280.736 131.349L284.831 122.674C287.116 124.175 289.567 125.343 292.186 126.177C294.805 127.012 297.396 127.429 299.959 127.429C302.132 127.429 303.72 127.123 304.723 126.511C305.782 125.899 306.311 125.093 306.311 124.092C306.311 122.924 305.67 122.034 304.389 121.423C303.163 120.811 301.157 120.088 298.371 119.254C295.418 118.475 292.966 117.669 291.016 116.835C289.121 116.001 287.478 114.777 286.085 113.164C284.692 111.552 283.995 109.466 283.995 106.908C283.995 104.35 284.747 102.07 286.252 100.068C287.812 98.0659 289.957 96.5088 292.688 95.3966C295.418 94.2844 298.538 93.7283 302.048 93.7283C305.169 93.7283 308.206 94.201 311.159 95.1463C314.112 96.0361 316.591 97.2596 318.597 98.8167L314.586 107.158C312.58 105.657 310.49 104.545 308.317 103.822C306.144 103.043 303.971 102.654 301.798 102.654C299.68 102.654 298.064 102.96 296.95 103.571C295.836 104.183 295.279 105.045 295.279 106.157C295.279 107.325 295.891 108.243 297.117 108.91C298.399 109.522 300.433 110.217 303.219 110.996C306.172 111.774 308.596 112.581 310.49 113.415C312.44 114.249 314.112 115.472 315.505 117.085C316.898 118.698 317.594 120.783 317.594 123.341C317.594 127.401 315.979 130.599 312.747 132.934C309.571 135.214 305.225 136.354 299.708 136.354Z" fill="white"/>
<path d="M340.437 136.354C333.472 136.354 327.148 134.686 321.465 131.349L325.56 122.674C327.845 124.175 330.296 125.343 332.915 126.177C335.534 127.012 338.125 127.429 340.688 127.429C342.861 127.429 344.449 127.123 345.452 126.511C346.511 125.899 347.04 125.093 347.04 124.092C347.04 122.924 346.399 122.034 345.118 121.423C343.892 120.811 341.886 120.088 339.1 119.254C336.147 118.475 333.695 117.669 331.745 116.835C329.85 116.001 328.207 114.777 326.814 113.164C325.421 111.552 324.724 109.466 324.724 106.908C324.724 104.35 325.476 102.07 326.981 100.068C328.541 98.0659 330.686 96.5088 333.417 95.3966C336.147 94.2844 339.267 93.7283 342.777 93.7283C345.898 93.7283 348.935 94.201 351.888 95.1463C354.841 96.0361 357.32 97.2596 359.326 98.8167L355.315 107.158C353.309 105.657 351.219 104.545 349.046 103.822C346.873 103.043 344.7 102.654 342.527 102.654C340.409 102.654 338.794 102.96 337.679 103.571C336.565 104.183 336.007 105.045 336.007 106.157C336.007 107.325 336.62 108.243 337.846 108.91C339.128 109.522 341.162 110.217 343.948 110.996C346.901 111.774 349.325 112.581 351.219 113.415C353.169 114.249 354.841 115.472 356.234 117.085C357.627 118.698 358.323 120.783 358.323 123.341C358.323 127.401 356.708 130.599 353.476 132.934C350.3 135.214 345.954 136.354 340.437 136.354Z" fill="white"/>
<path d="M378 122.34L376.997 135.687H363.457L364.544 122.34H378Z" fill="white"/>
<path d="M106.447 131.933C106.255 135.538 105.348 139.068 103.781 142.321C102.374 145.003 100.072 147.111 97.2732 148.279C93.3309 149.816 89.1469 150.643 84.9153 150.722L80.3582 151L80 141.189L85.0944 140.831C87.0333 140.82 88.9171 140.186 90.4674 139.024C91.7465 137.67 92.4585 135.879 92.4574 134.019L95.9996 89.5296H109.751L106.447 131.933ZM111.9 68.0001L111.263 76.2226C111.158 77.473 110.587 78.6386 109.662 79.4883C108.736 80.338 107.525 80.8099 106.268 80.8105H96.1588C96.4348 77.3158 98.0234 74.0541 100.606 71.6786C103.19 69.3031 106.576 67.9892 110.089 68.0001H111.9Z" fill="white"/>
</g>
<defs>
<filter id="filter0_dddddd_279_520" x="0" y="0" width="458" height="243" filterUnits="userSpaceOnUse" color-interpolation-filters="sRGB">
<feFlood flood-opacity="0" result="BackgroundImageFix"/>
<feColorMatrix in="SourceAlpha" type="matrix" values="0 0 0 0 0 0 0 0 0 0 0 0 0 0 0 0 0 0 127 0" result="hardAlpha"/>
<feOffset dy="0.332071"/>
<feGaussianBlur stdDeviation="1.1069"/>
<feColorMatrix type="matrix" values="0 0 0 0 1 0 0 0 0 1 0 0 0 0 1 0 0 0 0.104024 0"/>
<feBlend mode="normal" in2="BackgroundImageFix" result="effect1_dropShadow_279_520"/>
<feColorMatrix in="SourceAlpha" type="matrix" values="0 0 0 0 0 0 0 0 0 0 0 0 0 0 0 0 0 0 127 0" result="hardAlpha"/>
<feOffset dy="0.798012"/>
<feGaussianBlur stdDeviation="2.66004"/>
<feColorMatrix type="matrix" values="0 0 0 0 1 0 0 0 0 1 0 0 0 0 1 0 0 0 0.14944 0"/>
<feBlend mode="normal" in2="effect1_dropShadow_279_520" result="effect2_dropShadow_279_520"/>
<feColorMatrix in="SourceAlpha" type="matrix" values="0 0 0 0 0 0 0 0 0 0 0 0 0 0 0 0 0 0 127 0" result="hardAlpha"/>
<feOffset dy="1.50259"/>
<feGaussianBlur stdDeviation="5.00862"/>
<feColorMatrix type="matrix" values="0 0 0 0 1 0 0 0 0 1 0 0 0 0 1 0 0 0 0.185 0"/>
<feBlend mode="normal" in2="effect2_dropShadow_279_520" result="effect3_dropShadow_279_520"/>
<feColorMatrix in="SourceAlpha" type="matrix" values="0 0 0 0 0 0 0 0 0 0 0 0 0 0 0 0 0 0 127 0" result="hardAlpha"/>
<feOffset dy="2.68036"/>
<feGaussianBlur stdDeviation="8.93452"/>
<feColorMatrix type="matrix" values="0 0 0 0 1 0 0 0 0 1 0 0 0 0 1 0 0 0 0.22056 0"/>
<feBlend mode="normal" in2="effect3_dropShadow_279_520" result="effect4_dropShadow_279_520"/>
<feColorMatrix in="SourceAlpha" type="matrix" values="0 0 0 0 0 0 0 0 0 0 0 0 0 0 0 0 0 0 127 0" result="hardAlpha"/>
<feOffset dy="5.01331"/>
<feGaussianBlur stdDeviation="16.711"/>
<feColorMatrix type="matrix" values="0 0 0 0 1 0 0 0 0 1 0 0 0 0 1 0 0 0 0.265976 0"/>
<feBlend mode="normal" in2="effect4_dropShadow_279_520" result="effect5_dropShadow_279_520"/>
<feColorMatrix in="SourceAlpha" type="matrix" values="0 0 0 0 0 0 0 0 0 0 0 0 0 0 0 0 0 0 127 0" result="hardAlpha"/>
<feOffset dy="12"/>
<feGaussianBlur stdDeviation="40"/>
<feColorMatrix type="matrix" values="0 0 0 0 1 0 0 0 0 1 0 0 0 0 1 0 0 0 0.37 0"/>
<feBlend mode="normal" in2="effect5_dropShadow_279_520" result="effect6_dropShadow_279_520"/>
<feBlend mode="normal" in="SourceGraphic" in2="effect6_dropShadow_279_520" result="shape"/>
</filter>
</defs>
</svg>
