<svg width="298" height="270" viewBox="0 0 298 270" fill="none" xmlns="http://www.w3.org/2000/svg">
<path d="M90.768 0H207.232C210.751 0 214.126 1.40476 216.614 3.90524C219.102 6.40573 220.5 9.79711 220.5 13.3333V109.867C220.5 116.45 219.21 122.969 216.703 129.052C214.195 135.134 210.521 140.661 205.888 145.316C201.256 149.972 195.756 153.664 189.703 156.184C183.651 158.703 177.164 160 170.612 160H90.768C87.2491 160 83.8744 158.595 81.3861 156.095C78.8979 153.594 77.5 150.203 77.5 146.667V13.3333C77.5 9.79711 78.8979 6.40573 81.3861 3.90524C83.8744 1.40476 87.2491 0 90.768 0Z" fill="#92E3A9"/>
<path d="M158.582 113.852C158.344 118.907 157.117 123.866 154.971 128.444C152.97 132.144 149.771 135.045 145.904 136.667C141.766 138.533 136.017 139.679 128.656 140.104L122.316 140.489L121.815 126.726L128.906 126.222C131.636 126.22 134.29 125.326 136.469 123.674C138.258 121.784 139.256 119.275 139.255 116.667L144.194 54.2371H163.359L158.582 113.852ZM166.248 24.163L165.349 35.6741C165.215 37.4322 164.426 39.0745 163.138 40.2723C161.85 41.47 160.16 42.1348 158.406 42.1334H144.312C144.687 37.2418 146.887 32.6729 150.47 29.341C154.054 26.009 158.757 24.1597 163.639 24.163H166.248Z" fill="white"/>
<path d="M57.0632 255.354C52.6613 255.354 48.8445 254.52 45.6127 252.852C42.381 251.183 39.8736 248.848 38.0905 245.845C36.3632 242.786 35.4995 239.227 35.4995 235.167C35.4995 230.607 36.3911 226.631 38.1741 223.239C40.0129 219.847 42.576 217.261 45.8635 215.481C49.2067 213.646 53.0792 212.728 57.4811 212.728C61.883 212.728 65.6998 213.562 68.9316 215.231C72.1634 216.899 74.6429 219.263 76.3702 222.321C78.1533 225.324 79.0448 228.856 79.0448 232.915C79.0448 237.531 78.1254 241.535 76.2867 244.927C74.5036 248.264 71.9405 250.85 68.5973 252.685C65.3098 254.465 61.4651 255.354 57.0632 255.354ZM56.8961 245.845C60.1278 245.845 62.5238 244.621 64.084 242.174C65.6998 239.728 66.5078 236.53 66.5078 232.582C66.5078 225.686 63.5546 222.238 57.6483 222.238C54.4165 222.238 51.9927 223.461 50.3768 225.908C48.8167 228.355 48.0366 231.525 48.0366 235.418C48.0366 242.369 50.9897 245.845 56.8961 245.845Z" fill="#92E3A9"/>
<path d="M112.802 212.728C116.257 212.728 119.293 213.535 121.912 215.147C124.587 216.704 126.648 218.985 128.097 221.988C129.546 224.935 130.27 228.411 130.27 232.415C130.27 236.864 129.435 240.84 127.763 244.343C126.147 247.791 123.835 250.488 120.826 252.435C117.873 254.381 114.474 255.354 110.629 255.354C104.946 255.354 100.711 253.213 97.9248 248.931L97.5069 254.687H85.0534L89.6503 195.878H102.271L100.432 218.484C101.769 216.704 103.525 215.314 105.698 214.313C107.871 213.257 110.239 212.728 112.802 212.728ZM108.122 245.845C111.13 245.845 113.471 244.733 115.142 242.508C116.87 240.228 117.733 237.142 117.733 233.249C117.733 229.69 116.925 226.965 115.309 225.074C113.749 223.183 111.493 222.238 108.539 222.238C105.642 222.238 103.33 223.378 101.602 225.658C99.9307 227.882 99.0949 230.913 99.0949 234.75C99.0949 238.365 99.875 241.118 101.435 243.009C102.995 244.899 105.224 245.845 108.122 245.845Z" fill="#92E3A9"/>
<path d="M140.992 195.878H153.613L148.932 254.687H136.312L140.992 195.878Z" fill="#92E3A9"/>
<path d="M178.988 212.728C184.56 212.728 188.989 214.424 192.277 217.817C195.564 221.153 197.208 225.992 197.208 232.331C197.208 233.666 197.125 235.084 196.957 236.586H170.295C170.797 242.814 174.224 245.928 180.576 245.928C184.755 245.928 188.739 244.594 192.528 241.924L195.202 250.349C193.419 251.906 191.135 253.13 188.349 254.02C185.563 254.909 182.665 255.354 179.656 255.354C175.366 255.354 171.605 254.52 168.373 252.852C165.141 251.183 162.634 248.848 160.851 245.845C159.068 242.786 158.176 239.255 158.176 235.251C158.176 230.858 159.068 226.965 160.851 223.572C162.69 220.125 165.169 217.455 168.289 215.564C171.466 213.674 175.032 212.728 178.988 212.728ZM179.406 221.404C174.447 221.404 171.493 224.379 170.546 230.329H186.761C186.761 227.326 186.092 225.102 184.755 223.656C183.473 222.154 181.69 221.404 179.406 221.404Z" fill="#92E3A9"/>
<path d="M219.708 255.354C212.743 255.354 206.419 253.686 200.736 250.349L204.831 241.674C207.116 243.175 209.567 244.343 212.186 245.177C214.805 246.012 217.396 246.429 219.959 246.429C222.132 246.429 223.72 246.123 224.723 245.511C225.782 244.899 226.311 244.093 226.311 243.092C226.311 241.924 225.67 241.034 224.389 240.423C223.163 239.811 221.157 239.088 218.371 238.254C215.418 237.475 212.966 236.669 211.016 235.835C209.121 235.001 207.478 233.777 206.085 232.164C204.692 230.552 203.995 228.466 203.995 225.908C203.995 223.35 204.747 221.07 206.252 219.068C207.812 217.066 209.957 215.509 212.688 214.397C215.418 213.284 218.538 212.728 222.048 212.728C225.169 212.728 228.206 213.201 231.159 214.146C234.112 215.036 236.591 216.26 238.597 217.817L234.586 226.158C232.58 224.657 230.49 223.545 228.317 222.822C226.144 222.043 223.971 221.654 221.798 221.654C219.68 221.654 218.064 221.96 216.95 222.571C215.836 223.183 215.279 224.045 215.279 225.157C215.279 226.325 215.891 227.243 217.117 227.91C218.399 228.522 220.433 229.217 223.219 229.996C226.172 230.774 228.596 231.581 230.49 232.415C232.44 233.249 234.112 234.472 235.505 236.085C236.898 237.698 237.594 239.783 237.594 242.341C237.594 246.401 235.979 249.599 232.747 251.934C229.571 254.214 225.225 255.354 219.708 255.354Z" fill="#92E3A9"/>
<path d="M260.437 255.354C253.472 255.354 247.148 253.686 241.465 250.349L245.56 241.674C247.845 243.175 250.296 244.343 252.915 245.177C255.534 246.012 258.125 246.429 260.688 246.429C262.861 246.429 264.449 246.123 265.452 245.511C266.511 244.899 267.04 244.093 267.04 243.092C267.04 241.924 266.399 241.034 265.118 240.423C263.892 239.811 261.886 239.088 259.1 238.254C256.147 237.475 253.695 236.669 251.745 235.835C249.85 235.001 248.207 233.777 246.814 232.164C245.421 230.552 244.724 228.466 244.724 225.908C244.724 223.35 245.476 221.07 246.981 219.068C248.541 217.066 250.686 215.509 253.417 214.397C256.147 213.284 259.267 212.728 262.777 212.728C265.898 212.728 268.935 213.201 271.888 214.146C274.841 215.036 277.32 216.26 279.326 217.817L275.315 226.158C273.309 224.657 271.219 223.545 269.046 222.822C266.873 222.043 264.7 221.654 262.527 221.654C260.409 221.654 258.794 221.96 257.679 222.571C256.565 223.183 256.007 224.045 256.007 225.157C256.007 226.325 256.62 227.243 257.846 227.91C259.128 228.522 261.162 229.217 263.948 229.996C266.901 230.774 269.325 231.581 271.219 232.415C273.169 233.249 274.841 234.472 276.234 236.085C277.627 237.698 278.323 239.783 278.323 242.341C278.323 246.401 276.708 249.599 273.476 251.934C270.3 254.214 265.954 255.354 260.437 255.354Z" fill="#92E3A9"/>
<path d="M298 241.34L296.997 254.687H283.457L284.544 241.34H298Z" fill="#92E3A9"/>
<path d="M26.4471 250.933C26.2548 254.538 25.3485 258.068 23.7805 261.321C22.3735 264.003 20.0718 266.111 17.2732 267.279C13.3309 268.816 9.14687 269.643 4.91531 269.722L0.3582 270L0 260.189L5.09441 259.831C7.03333 259.82 8.91714 259.186 10.4674 258.024C11.7465 256.67 12.4585 254.879 12.4574 253.019L15.9996 208.53H29.7506L26.4471 250.933ZM31.8998 187L31.263 195.223C31.1582 196.473 30.5866 197.639 29.6615 198.488C28.7364 199.338 27.5253 199.81 26.268 199.811H16.1588C16.4348 196.316 18.0234 193.054 20.6065 190.679C23.1895 188.303 26.5764 186.989 30.0889 187H31.8998Z" fill="#92E3A9"/>
</svg>
